<svg id="Layer_1" data-name="Layer 1" xmlns="http://www.w3.org/2000/svg" viewBox="0 0 310.17 123.55"><defs><style>.cls-1,.cls-2{fill:#262424;}.cls-1{fill-rule:evenodd;}.cls-3{fill:none;stroke:#262424;stroke-width:1.08px;}</style></defs><title>mama_mals_header</title><path class="cls-1" d="M33,78.13c0-1.24,0-2.32,0-3.39.06-1.75.22-3.5.24-5.25,0-1.91-.08-3.82-.07-5.73,0-2.27.1-4.54.14-6.81,0-.75,0-1.51,0-2.26,0-1.79,0-3.59-.1-5.38,0-1-.19-2-.32-3.33a13.79,13.79,0,0,0-1.36,1.55c-1.61,2.59-3.17,5.22-4.79,7.81-.56.89-1.28,1.69-2,2.65-1.13-1.89-2.16-3.66-3.24-5.39s-1.88-3.51-3-5.13l-.38.1a4.75,4.75,0,0,0-.2,1q0,8.26-.06,16.52,0,4.85,0,9.7c0,.92,0,1.84,0,2.76s-.14,1-1,1c-1.31.08-2.63.08-3.95.11-.68,0-1.36.06-2,.07-1,0-1.33-.25-1.32-1.24,0-1.64.06-3.27.1-4.91,0-1.36.08-2.71.11-4.07.05-1.91.12-3.83.15-5.74s0-3.9,0-5.85c0-2.63.14-5.27.18-7.9,0-1.27,0-2.55,0-3.83-.11-3.74-.24-7.47-.34-11.21,0-.84,0-1.68.06-2.51a1.36,1.36,0,0,1,1.32-1.41c2.07-.05,4.14,0,6.21-.11a1.32,1.32,0,0,1,1.33.8c1.31,2.41,2.65,4.79,4,7.2.76,1.39,1.48,2.8,2.25,4.18.12.21.37.35.56.52.17-.18.34-.37.5-.56a1.61,1.61,0,0,0,.1-.22c2-3.36,4-6.7,6-10.08a2.48,2.48,0,0,1,2.33-1.31c1.83,0,3.66-.21,5.48-.35,1-.08,1.31.17,1.32,1.17,0,4.23,0,8.46,0,12.69,0,8.58-.08,17.16-.12,25.74,0,2.39,0,4.78,0,7.17,0,.91-.14,1-1,1s-1.73.19-2.6.22c-1.42,0-2.85,0-4.44,0" transform="translate(-9.49 -27.67)"/><path class="cls-1" d="M106.75,46.16c-.7,1-1.44,2-2.08,3-1.3,2.09-2.52,4.23-3.84,6.31-.54.86-1.24,1.61-2,2.59-.74-1.34-1.35-2.52-2-3.66S95.4,52,94.6,50.86s-1-2.5-2.31-3.5a6.94,6.94,0,0,0-.23,1.16c0,5.66,0,11.33,0,17,0,3.11-.06,6.23-.08,9.34,0,.92,0,1.84,0,2.76a.8.8,0,0,1-.84.93c-.44,0-.88.09-1.31.1L85,78.71c-1.07,0-1.36-.28-1.35-1.33s0-2.23.06-3.34c.11-3.83.26-7.66.35-11.49q.16-7.12.23-14.23c0-1.31-.12-2.62-.19-3.94,0-.12,0-.24,0-.36-.08-3.34-.16-6.68-.23-10,0-.84,0-1.68.07-2.51a1.39,1.39,0,0,1,1.31-1.43c2.07-.05,4.14,0,6.21-.11a1.39,1.39,0,0,1,1.4.88c1.24,2.31,2.51,4.6,3.76,6.9.8,1.46,1.58,2.93,2.39,4.38.12.22.35.49.55.51s.37-.3.52-.5.33-.54.49-.81c1.75-3,3.49-5.91,5.26-8.86,1.15-1.92,1.16-1.88,3.4-1.94,1.59,0,3.18-.21,4.77-.36,1.05-.1,1.35.17,1.35,1.24,0,4.15,0,8.3,0,12.45,0,2.11-.11,4.22-.12,6.34,0,6.51,0,13,0,19.51q0,3.59,0,7.18c0,1-.06,1-1.07,1-.31,0-.62.12-.93.13-1.79.07-3.58.12-5.38.17-.58,0-.75-.33-.73-.85,0-.84,0-1.68.06-2.51.06-2.19.15-4.37.18-6.55,0-2.91,0-5.81,0-8.72,0-2.51.14-5,.14-7.52,0-1.27-.18-2.54-.27-3.81,0-.31,0-.63,0-.95s0-.67-.07-1l-.38-.09" transform="translate(-9.49 -27.67)"/><path class="cls-1" d="M59.75,30.11c2.44,0,4.78-.76,7.19-.34.74.13,1.11.38,1.27,1.15.49,2.33,1,4.65,1.48,7,.37,1.87.64,3.76,1,5.62.44,2.09,1.14,4.15,1.4,6.26.23,1.87.92,3.6,1.25,5.44.38,2.09,1.09,4.13,1.6,6.2.36,1.47.59,3,.92,4.44.4,1.82.86,3.63,1.25,5.45.27,1.24.47,2.5.71,3.74.14.74.34,1.47.46,2.21a5.69,5.69,0,0,1,0,1c-.93,0-1.69-.05-2.46-.06l-5.48,0c-.75,0-.89-.6-1-1.14-.24-1.25-.45-2.51-.64-3.77s-.37-2.75-.58-4.13a1.23,1.23,0,0,0-1.37-1.06c-2,.09-4,.22-6,.3-.63,0-1.27,0-1.91-.05H57.18c-.4,1.54-.77,3-1.12,4.37s-.67,3.1-1.08,4.63a1.15,1.15,0,0,1-1.21.91c-1.82,0-3.64.25-5.46.34a9.83,9.83,0,0,1-1.66-.2c.14-.8.2-1.47.37-2.11.43-1.65.92-3.28,1.36-4.92.39-1.46.74-2.92,1.13-4.38.46-1.76,1-3.51,1.41-5.27s.74-3.33,1.15-5c.33-1.35.72-2.69,1.08-4,.3-1.11.6-2.22.9-3.33.79-2.86,1.58-5.72,2.39-8.57.54-1.91,1.12-3.81,1.71-5.7.5-1.61,1-3.22,1.61-5m6.94,30.21c-.71-2.82-1.38-5.37-2-7.95S63.58,47.19,63,44.6h-.27c-.35,1.41-.7,2.82-1.05,4.23-.41,1.6-.75,3.23-1.25,4.81a23.81,23.81,0,0,0-1.39,5.51c-.07,1,0,1,1,1,1.74,0,3.49.08,5.23.12h1.43" transform="translate(-9.49 -27.67)"/><path class="cls-1" d="M131.34,68.32c-.4,1.59-.76,3-1.12,4.5-.2.8-.42,1.6-.62,2.41-.13.54-.26,1.08-.34,1.63-.14,1-.49,1.29-1.43,1.35-1.78.12-3.56.27-5.34.37a10.83,10.83,0,0,1-1.67-.18c.17-.93.27-1.78.49-2.6.73-2.68,1.52-5.34,2.25-8,.38-1.42.66-2.86,1-4.29q.58-2.42,1.2-4.83c.46-1.81.94-3.61,1.41-5.42.73-2.84,1.41-5.69,2.2-8.52.64-2.29,1.4-4.54,2.1-6.82.47-1.55.89-3.12,1.38-4.66.32-1,.73-2,1.13-3.09,2.44-.13,4.9-.76,7.41-.37a1.21,1.21,0,0,1,1,1.06c.51,2.4,1,4.8,1.52,7.21.38,1.95.64,3.92,1,5.86s.93,3.86,1.38,5.79c.24,1,.42,2.09.68,3.13s.62,2.2.9,3.31q.79,3.23,1.54,6.48t1.47,6.75c.25,1.2.41,2.43.65,3.63s.52,2.24.77,3.36c.15.68.47,1.36.16,1.91l-2.57,0c-1.75,0-3.5,0-5.24,0-.75,0-1-.51-1.07-1.06-.25-1.29-.44-2.59-.65-3.88s-.39-2.75-.62-4.13a1.17,1.17,0,0,0-1.37-1c-1.95.09-3.89.21-5.84.29-.67,0-1.35,0-2,0h-1.73m5.82-23.71-.21,0-1.06,4.24c-.39,1.58-.7,3.18-1.2,4.72a23.29,23.29,0,0,0-1.43,5.62c-.07,1,0,1,1,1,1.75,0,3.5.09,5.24.13.4,0,.81,0,1.34-.05l-3.64-15.66" transform="translate(-9.49 -27.67)"/><path class="cls-1" d="M193.81,57l-.75-1.24c-1.33-2.25-2.68-4.5-4-6.75-.44-.75-.81-1.54-1.25-2.29-.12-.2-.39-.3-.77-.57-.08.83-.19,1.45-.19,2.07q-.06,7-.08,14c0,5,0,9.9,0,14.85,0,.16,0,.32,0,.48,0,.54-.28.79-.82.81-1.19,0-2.39.11-3.58.16-.92,0-1.84,0-2.75.06-1.11,0-1.43-.28-1.43-1.4s0-2.47.06-3.71q.07-3.11.15-6.22c0-1.16.1-2.31.12-3.47,0-2.67,0-5.34.1-8s.17-5.18.21-7.78c0-1.4,0-2.79-.08-4.19-.11-3.62-.25-7.24-.35-10.86,0-1.07,0-2.15.06-3.23a1.41,1.41,0,0,1,1.37-1.5c2.15-.06,4.3,0,6.44-.13a1.39,1.39,0,0,1,1.4.88l3.93,7.2c.81,1.49,1.6,3,2.43,4.49a1.17,1.17,0,0,0,.63.57c.42.09.42-.35.55-.63a7.38,7.38,0,0,1,.49-.81c1.55-2.62,3.1-5.24,4.66-7.86.49-.81,1.08-1.57,1.53-2.41a1.54,1.54,0,0,1,1.47-.82l4.9-.26c.48,0,.95-.09,1.43-.15,1-.11,1.3.22,1.29,1.2,0,3.67-.06,7.34-.07,11q0,10.42,0,20.84c0,2.44,0,4.87,0,7.31,0,2.67,0,5.34,0,8,0,1-.09,1-1.16,1s-2,.23-2.95.29-2.23.07-3.34.06c-.84,0-1-.16-.94-1,.07-2.43.19-4.86.24-7.29,0-2.07,0-4.14,0-6.21,0-2.43.09-4.86.13-7.29,0-.68,0-1.35,0-2q-.06-3.11-.15-6.21c0-.83-.08-1.66-.15-2.49a3.17,3.17,0,0,0-.26-.71,12,12,0,0,0-2.3,3.08c-1.41,2.21-2.71,4.48-4.1,6.7a24.84,24.84,0,0,1-1.66,2.18c-.09.11-.27.14-.45.23" transform="translate(-9.49 -27.67)"/><path class="cls-1" d="M297.54,61.65h4.06c.52,0,.64.32.69.78.11,1,.31,2,.4,3.07a2.09,2.09,0,0,0,1.86,1.9,8.1,8.1,0,0,0,2.14.17c.84,0,2.21-1.52,2.38-2.43A4.88,4.88,0,0,0,307,59.92c-2.61-1.88-5.21-3.78-7.86-5.59a14.91,14.91,0,0,1-5.65-8,13.56,13.56,0,0,1-.55-6.38,15.28,15.28,0,0,1,1.52-5.43,15.79,15.79,0,0,1,3.56-4c3.58-3,7.58-3.55,11.93-2,.48.17,1,.21,1.49.37a16.46,16.46,0,0,1,4.36,2.35,5.64,5.64,0,0,1,1.29,1.21,11.74,11.74,0,0,1,2.46,6.33c.06,1.63.11,3.27.11,4.9,0,1.23-.17,1.31-1.41,1.34-1.47,0-2.95.15-4.42.18-.83,0-1.66,0-2.48-.1a.72.72,0,0,1-.71-.8,11.23,11.23,0,0,0,0-1.2,27,27,0,0,0-.56-3.77,2.72,2.72,0,0,0-1.26-1.5,4.05,4.05,0,0,0-4.88.31,3.51,3.51,0,0,0-1.32,2.79,9,9,0,0,0,3.94,7.6A58.57,58.57,0,0,0,311.83,52a14.13,14.13,0,0,1,5,4.83,16.38,16.38,0,0,1,1.53,2.79,10.38,10.38,0,0,1,.87,4.27,9.82,9.82,0,0,0,.16,1.65,8.45,8.45,0,0,1-.65,3.48,12.32,12.32,0,0,1-1.41,3.23,21.14,21.14,0,0,1-3.51,4.35,7,7,0,0,1-1.5.92,12.38,12.38,0,0,1-6,1.07c-1.71-.07-3.42-.27-5.11-.49a7.55,7.55,0,0,1-5.08-2.83,12.3,12.3,0,0,1-2.22-4.43,28.21,28.21,0,0,1-.88-4.08,23.62,23.62,0,0,1,0-3.94c0-.78.37-1,1.2-1,1.12,0,2.23,0,3.35,0,0,0,0-.1,0-.14" transform="translate(-9.49 -27.67)"/><path class="cls-1" d="M249.35,78.45c-1.08-.8-2.17-.29-3.22-.31-1.67,0-3.33,0-5-.09a.83.83,0,0,1-.54-.39,2.54,2.54,0,0,1-.33-.89c-.25-1.45-.47-2.91-.7-4.37-.19-1.22-.37-2.43-.56-3.65a1.24,1.24,0,0,0-1.41-1.14c-2.15.11-4.29.25-6.44.34a13.74,13.74,0,0,1-1.91-.13c-1.2-.12-1.46,0-1.82,1.11s-.63,2.37-.94,3.55c-.16.61-.36,1.21-.5,1.83-.2.89-.33,1.8-.56,2.68a4.43,4.43,0,0,1-.58,1,38.9,38.9,0,0,1-8.1.31c.17-1,.25-1.83.47-2.65.75-2.76,1.58-5.49,2.31-8.25.46-1.73.81-3.49,1.21-5.23.2-.84.42-1.68.63-2.52q1-3.86,2-7.72c.74-2.84,1.46-5.68,2.22-8.51.37-1.38.83-2.73,1.25-4.1.6-2,1.17-3.95,1.78-5.92.52-1.69,1.08-3.38,1.65-5.13A39.44,39.44,0,0,1,238,27.9c.62.06.9.57,1,1.16.52,2.44,1.08,4.88,1.57,7.33.38,1.91.62,3.84,1,5.74.44,2.14,1,4.26,1.47,6.38,0,.19.1.39.14.58.23,1.12.44,2.25.7,3.36.3,1.31.63,2.61,1,3.9s.76,2.76,1.08,4.15c.37,1.59.66,3.19,1,4.78.41,1.86.86,3.71,1.28,5.57.09.39.13.79.21,1.18.27,1.36.55,2.71.82,4.07a3.15,3.15,0,0,1,0,2.35M237.28,59.56a7.11,7.11,0,0,1-.28-1.12,30.38,30.38,0,0,0-1.46-6.59c-.26-.91-.5-1.83-.7-2.76-.4-1.89-.76-3.79-1.19-5.95a5.8,5.8,0,0,0-.34.73c-.49,2-1,4-1.46,6-.24,1-.45,1.93-.77,2.87a21.09,21.09,0,0,0-1.45,5.61c-.06,1.09-.05,1.13,1,1.07a19.59,19.59,0,0,1,5.35.14,6.52,6.52,0,0,0,1.27,0" transform="translate(-9.49 -27.67)"/><path class="cls-1" d="M264.28,69l.94.09c1.22.12,2.45.29,3.68.36,1.55.09,3.11.11,4.66.14,1,0,2,0,3,0s1.25.38,1.18,1.35q-.21,3-.37,6.07c-.05,1-.07,1.12-1.08,1.15a59.67,59.67,0,0,1-7.14,0c-2.09-.2-4.22-.05-6.33,0q-2.45,0-4.9.05a12.34,12.34,0,0,0-1.31.12c-1.23.15-1.37,0-1.38-1.25,0-1.8,0-3.59,0-5.39,0-2.91.07-5.82.15-8.73s.26-5.74.34-8.61c0-1.47-.07-2.95-.09-4.42,0-1.63,0-3.26,0-4.89.07-4.9.17-9.8.25-14.7,0-.08,0-.16,0-.24,0-1.14.1-1.19,1.24-1.23q3.22-.11,6.45-.26c.81,0,1.24.22,1.27,1,.06,1.31,0,2.63,0,3.95q-.07,3.95-.17,7.9c0,2-.16,4-.16,5.94,0,2.9.16,5.8.13,8.7s-.23,6-.32,9c0,1.27,0,2.54,0,4" transform="translate(-9.49 -27.67)"/><path class="cls-1" d="M279.42,33.14c0-1.23,0-2.46,0-3.69,0-1,.19-1.07,1.11-1.19a17.56,17.56,0,0,1,5-.13c1.13.18,1.35.3,1.21,1.44a29,29,0,0,1-.86,4.78c-.31,1.06-.45,2.17-.65,3.26,0,.16,0,.32,0,.47-.6,2.4-.58,2.28-2.6,2.2-.44,0-.88,0-1.31,0-1.05,0-1.18-.08-1.32-1.1-.26-2-.47-4-.7-6l.18,0" transform="translate(-9.49 -27.67)"/><path class="cls-1" d="M196.8,92.1a1,1,0,0,1-.93-.81,2.19,2.19,0,0,1,.93-2.31,1.39,1.39,0,0,1,1.46,0,1.11,1.11,0,0,1,.49,1.25,2.14,2.14,0,0,1-2,1.9" transform="translate(-9.49 -27.67)"/><path class="cls-1" d="M209.84,90.88a10.67,10.67,0,0,1,.42-1.29c.36-.75.85-1,1.48-.81a1.52,1.52,0,0,1,1,1.7,1.91,1.91,0,0,1-.88,1.33,1.1,1.1,0,0,1-1.33.1,4.37,4.37,0,0,1-.73-1" transform="translate(-9.49 -27.67)"/><path class="cls-1" d="M194.31,104.17a21,21,0,0,1-1.71,1.93A4.68,4.68,0,0,1,191,107a1.9,1.9,0,0,1-2.28-1.12,18.85,18.85,0,0,1-.75-2,7.94,7.94,0,0,1-.68.89,8.05,8.05,0,0,1-1.64,1.45,2.12,2.12,0,0,1-3.16-1.18,7.3,7.3,0,0,0-.36-.84l-1.38,1.31a9.06,9.06,0,0,1-5.7,2.65,6.17,6.17,0,0,1-6.47-4.15,10.8,10.8,0,0,1-.21-6,13.35,13.35,0,0,1,4.73-7.8,8.28,8.28,0,0,1,5.21-1.89,4.69,4.69,0,0,1,3,.89,2.9,2.9,0,0,1,1.17,2.93,3.16,3.16,0,0,1-2.15,2.47,1.27,1.27,0,0,1-1.4-.39,1.06,1.06,0,0,1,.12-1.33,7.41,7.41,0,0,1,.52-.57,1.39,1.39,0,0,0,.25-1.64,1.41,1.41,0,0,0-1.44-.84,1.54,1.54,0,0,0-.65.11,9.52,9.52,0,0,0-2.58,1.43c-2.75,2.86-4.2,6.22-3.28,10.28a7.64,7.64,0,0,0,.9,2.13,3.08,3.08,0,0,0,3.5,1.5,5.61,5.61,0,0,0,1.65-.6c.95-.57,1.84-1.22,2.73-1.88a5.23,5.23,0,0,0,1.91-3,15.89,15.89,0,0,1,.64-1.88,4,4,0,0,1,.55-1c.44-.56,1-.84,1.41-.61a1.16,1.16,0,0,1,.4,1.38,11.53,11.53,0,0,1-.53,1.91,8,8,0,0,0-.51,3.47,2.43,2.43,0,0,0,.13.64c.28.83.76,1,1.38.38a7.13,7.13,0,0,0,2-3.41c.28-1.18.47-2.39.73-3.58a1.63,1.63,0,0,1,1.67-1.47c.87,0,1.18.2,1.14,1.07s-.22,2-.28,3-.1,2.06-.11,3.09a2.28,2.28,0,0,0,.68,1.67,3.78,3.78,0,0,0,.7-.48,5.94,5.94,0,0,0,1.83-3.79,11.92,11.92,0,0,1,.8-3.31c.35-1,1-1.35,1.63-1.17s.92.91.7,2a5.59,5.59,0,0,1-.36,1.16,9,9,0,0,0-.4,4.47,1,1,0,0,0,.49.77,1,1,0,0,0,.82-.31,13.74,13.74,0,0,0,2.78-4.74c.41-1,.77-2,1.15-3,.22-.58.49-1.07,1.22-1.11a1.52,1.52,0,0,1,1.57,1c.66,1.44,1.25,2.91,1.87,4.37.11.27.2.54.31.86,1-.31,1.75-.75,1.87-1.92a9.08,9.08,0,0,1,.56-2.13,3,3,0,0,1,.7-1.11,1,1,0,0,1,1.74.54,4.34,4.34,0,0,1-.26,2,9.46,9.46,0,0,0-.48,4.57c.06.59.1,1.29.75,1.48s1.17-.35,1.54-.86a8.52,8.52,0,0,0,2-6.48,10.62,10.62,0,0,1-.06-1.09c1.72,0,2.41.52,2.58,2.16.25-.27.44-.45.61-.66a4.37,4.37,0,0,1,2-1.5,1.7,1.7,0,0,1,2.38,1.13,7.39,7.39,0,0,1,.12,3.39c-.06.58-.2,1.16-.28,1.74a3,3,0,0,0,0,.88c.1.62.48.82,1,.49a3.8,3.8,0,0,0,1.83-2.39A8,8,0,0,1,228,97.3a4.09,4.09,0,0,1,2.88-1.23,1.72,1.72,0,0,1,1.79,1.71,3.7,3.7,0,0,1-1.67,3.42,30.08,30.08,0,0,1-2.92,1.66c-.07,1.18.55,1.81,1.8,1.73a3.4,3.4,0,0,0,2-1,11.19,11.19,0,0,0,2.35-3.2c.19-.36.36-.72.57-1.14a.82.82,0,0,1,.43,1.11,10.28,10.28,0,0,1-4.93,6,4.39,4.39,0,0,1-1.6.39,2.61,2.61,0,0,1-3-1.8l-.31-.74c-.28.3-.52.58-.78.83a7.92,7.92,0,0,1-1,.86,2.32,2.32,0,0,1-2.5.35,2.1,2.1,0,0,1-1-2.3c.1-1.1.31-2.19.42-3.3a3.24,3.24,0,0,0-.31-2.58,2,2,0,0,0-1.54,1.13,7.66,7.66,0,0,0-1.47,5.33c0,.25.05.51.09.88a12.11,12.11,0,0,1-1.41.76c-.84.33-1.27,0-1.36-.85,0-.25,0-.5,0-1-.31.37-.49.62-.71.84a10.56,10.56,0,0,1-1.61,1.49,2,2,0,0,1-3-.85,10,10,0,0,1-.6-2.1c-.09-.38-.11-.79-.17-1.3l-1.16.54c-.05.48-.08.92-.15,1.36a4.71,4.71,0,0,1-2.48,3.48,3.63,3.63,0,0,1-4-.72,2.11,2.11,0,0,1-.07-2.56,6.5,6.5,0,0,1,1.53-1.24c.75-.45,1.58-.79,2.46-1.23a11.19,11.19,0,0,0-1.13-3.88c-.28.69-.49,1.22-.71,1.75a26.73,26.73,0,0,1-3.12,5.22,6,6,0,0,1-1.44,1.36,2.17,2.17,0,0,1-3.55-1.11c-.15-.37-.25-.75-.42-1.27m33.56-2.76a3.88,3.88,0,0,0,2.32-1.45,1.46,1.46,0,0,0,.37-.78,1.33,1.33,0,0,0-.31-1,1.29,1.29,0,0,0-1,0,1.47,1.47,0,0,0-.63.58,4.16,4.16,0,0,0-.75,2.64m-23.17,2.68c-1.62.1-2.21.54-2,1.44,1.22.07,1.6-.19,2-1.44" transform="translate(-9.49 -27.67)"/><path class="cls-1" d="M164.18,99.47A27.14,27.14,0,0,1,163,102a14,14,0,0,1-1.69,2.28,1.39,1.39,0,0,1-1.15.31c-.19,0-.35-.67-.34-1,0-.71.2-1.42.23-2.13a19,19,0,0,0,0-3.44,1.89,1.89,0,0,0-2.9-1.55,10.31,10.31,0,0,0-1.87,1.44,7.81,7.81,0,0,0-.64.67c-.36-1.67-.91-2.1-2.91-2.28a11.36,11.36,0,0,0,.1,1.29c.45,2.4-.56,4.26-2.2,5.87a1.47,1.47,0,0,1-1.41.54,2.29,2.29,0,0,1-.16-2.25,22.71,22.71,0,0,0,1.11-3,4.9,4.9,0,0,0,.1-2c-.13-.84-.86-1-1.51-.51a5,5,0,0,0-.53.59,3.72,3.72,0,0,0-4.69,1,7.66,7.66,0,0,0-2.23,4.4,5,5,0,0,1-1.2,2.53c-.38.46-.85.94-1.51.77s-.74-.82-.8-1.36a10,10,0,0,1,.42-4.94,8.54,8.54,0,0,0,.42-2.31,1,1,0,0,0-.7-1,1.09,1.09,0,0,0-1.29.36,3.7,3.7,0,0,0-.72,1.22,14.33,14.33,0,0,0-.66,3,6.53,6.53,0,0,1-2.25,4.33c-.83.81-1.51.62-1.85-.49a4.05,4.05,0,0,1,.38-3.85A23.52,23.52,0,0,0,134.22,91a6.13,6.13,0,0,0-.18-3.3c-.61-1.65-2.09-1.95-3.24-.65a5.51,5.51,0,0,0-1,1.6,39.6,39.6,0,0,0-1.38,4.05,42.57,42.57,0,0,0-1.19,8.37,3.35,3.35,0,0,1-2.75,2.89,2.17,2.17,0,0,1-.21-2.21,20.19,20.19,0,0,0,1.09-2.9,5.33,5.33,0,0,0,.14-2.11c-.14-.93-.85-1.14-1.55-.53a2.81,2.81,0,0,0-.43.64,3.51,3.51,0,0,0-4.36.52,7.78,7.78,0,0,0-2.58,4.59,4.2,4.2,0,0,1-1.63,2.54c-1.08.89-2.13.56-2.37-.81a8.53,8.53,0,0,1,0-2.47c.15-1.25.41-2.49.6-3.64a22.89,22.89,0,0,0,2.66-.83c1.45-.66,1.48-1.86.14-2.75-1.29,1.18-1.29,1.18-2.31,1.3,0-.36.09-.71.13-1.06s.1-.79.1-1.19a1.47,1.47,0,0,0-1.45-1.69,9.35,9.35,0,0,0-1.11,0,12.63,12.63,0,0,1-.25,4.35c-.28,0-.51,0-.75,0s-.54-.06-.79-.09c-.66,1.37-.57,1.52,1.18,2a.67.67,0,0,1,0,.22q-.55,3-1.11,6a1.7,1.7,0,0,1-.2.55,3.08,3.08,0,0,1-4.25,1,1.39,1.39,0,0,1-.51-2.11,14.58,14.58,0,0,0,1.32-2.66,29,29,0,0,0,1.22-8.24,7.8,7.8,0,0,0-.77-3.71,2.93,2.93,0,0,0-4.69-.94,8.52,8.52,0,0,0-1,1,11.28,11.28,0,0,0-2.11,4.38,12.9,12.9,0,0,0-.4,6.71c.42,1.56.88,2.77,1.4,4.39a2.47,2.47,0,0,1-.91.66,2.28,2.28,0,0,1-2.29-.26,2,2,0,0,1-.34-2.28,5.56,5.56,0,0,1,.82,0,1.91,1.91,0,0,0,1.29-.33c.19-.17.35-.62.16-.84s-.83-.12-1.08-.12a5.26,5.26,0,0,1-1.31-.27c-.93-.26-1.22.42-1.55.94h0a5,5,0,0,0-.5,3.47,3.49,3.49,0,0,0,2.14,2.29,6.13,6.13,0,0,0,3,.1,9,9,0,0,0,2.7-.92,4.51,4.51,0,0,0,4.19,1.7,7.52,7.52,0,0,0,4.33-2c2.07,1.78,3.19,1.52,6.22-1.39.56,1,1.19,1.87,2.49,1.91a4.22,4.22,0,0,0,2.94-1.5c1.34,1.1,2.16,1.13,3.47.15.41-.31.77-.68,1.15-1,.22-.2.42-.42.66-.65.22.86.36,1.65.63,2.38a2.23,2.23,0,0,0,3.55,1.22,12.21,12.21,0,0,0,1.88-1.8,12.4,12.4,0,0,0,.86-1.13c.14.54.23.91.33,1.28.68,2.36,2.65,2.91,4.45,1.22a21.64,21.64,0,0,0,1.51-1.74,2.93,2.93,0,0,0,2.58,1.6,4.41,4.41,0,0,0,2.71-1.48c1.43,1.12,2.26,1.13,3.66,0,.61-.49,1.14-1.07,1.79-1.69,0,.25,0,.4,0,.54a16,16,0,0,0-.13,1.9c0,.91.52,1.23,1.36.93a13.11,13.11,0,0,0,1.62-.84c-.5-3.69,1-7.34,3.14-7.88a1.74,1.74,0,0,1,.43,1.54c0,.75-.16,1.5-.25,2.25A25.83,25.83,0,0,0,157,105c0,2,1.53,2.93,3.34,2a1.54,1.54,0,0,0,.21-.12,10,10,0,0,0,4-6.27,1,1,0,0,0-.44-1.19m-31.95-9.92c.86,1.9-.23,6-2.16,8.41a22.37,22.37,0,0,1,2.16-8.41m-28.7,12.31a5.12,5.12,0,0,1-.4.39,24.8,24.8,0,0,1-.71-2.89,16.12,16.12,0,0,1,1.05-8.65,2.59,2.59,0,0,1,1.33-1.49,6,6,0,0,1,.54,1.42c.37,3.77.23,7.48-1.63,10.92a2.57,2.57,0,0,1-.18.31m18.67-1.62c-.16.81-.29,1.63-.47,2.44a1.41,1.41,0,0,1-.38.82,2.86,2.86,0,0,1-1.44.65c-.62,0-.83-.64-.95-1.21-.07-.34-.12-.7-.15-.93a5.14,5.14,0,0,1,.88-2.9c.54-.72,1.11-.92,1.71-.62a1.46,1.46,0,0,1,.8,1.75m23.83,0c-.15.86-.31,1.72-.48,2.58a1.27,1.27,0,0,1-.21.54,1.77,1.77,0,0,1-1.61.84c-.72-.1-.84-.77-1-1.35a3.31,3.31,0,0,1-.07-.73,4.81,4.81,0,0,1,.79-2.92c.51-.74,1.1-1,1.7-.7a1.47,1.47,0,0,1,.88,1.75" transform="translate(-9.49 -27.67)"/><path class="cls-1" d="M137.61,93.09a1,1,0,0,1-.93-.81A2.19,2.19,0,0,1,137.6,90a1.39,1.39,0,0,1,1.46,0,1.11,1.11,0,0,1,.49,1.25,2.14,2.14,0,0,1-2,1.9" transform="translate(-9.49 -27.67)"/><path class="cls-2" d="M213.27,138c0-2-.4-2.6-1.77-3.15l-1.36-.55c-.63-.26-.75-.46-.75-1.15a1.22,1.22,0,0,1,.18-.78.73.73,0,0,1,.63-.29.71.71,0,0,1,.63.27,1.64,1.64,0,0,1,.18,1h2.17a3.3,3.3,0,0,0-.84-2.52,3,3,0,0,0-2.14-.69,3,3,0,0,0-2,.69,3.06,3.06,0,0,0-1,2.41c0,1.7.46,2.28,1.56,2.74l1.38.57c.78.32.95.5.95,1.54a1.42,1.42,0,0,1-.21.92.79.79,0,0,1-.69.28.87.87,0,0,1-.67-.26,1.47,1.47,0,0,1-.23-1h-2.17a3.21,3.21,0,0,0,.72,2.41,3.25,3.25,0,0,0,2.35.79,3.39,3.39,0,0,0,2.37-.81,3.13,3.13,0,0,0,.7-2.41M202,137.44h-1.68l.84-4Zm3,3.65-2.8-10.88h-2.14l-2.8,10.88h2.26l.35-1.7h2.51l.35,1.7Zm-9.45,0-2.29-5.63,2.13-5.26H193l-.92,3.26-.92-3.26H188.8l2.06,5.26-2.23,5.63H191l1.09-3.47,1.09,3.47Zm-9.05,0v-2h-2.84v-2.55h2.45v-2h-2.45v-2.46h2.84v-2h-5V141.1Zm-7.69-8.93v-2H173v2h1.83v8.93H177v-8.93Zm-10.21,10.06V138.8h-2.17v5Zm-5.4-1.13V130.21H161v5.32l-2.26-5.32h-1.89V141.1h2.17v-5.32l2.31,5.32Zm-9.54-10.88h-2.17V141.1h2.17Zm-4.85,2v-2H143v2h1.84v8.93H147v-8.93ZM140.64,138c0-2-.4-2.6-1.77-3.15l-1.36-.55c-.63-.26-.75-.46-.75-1.15a1.22,1.22,0,0,1,.18-.78.73.73,0,0,1,.63-.29.71.71,0,0,1,.63.27,1.64,1.64,0,0,1,.18,1h2.17a3.3,3.3,0,0,0-.84-2.52,3,3,0,0,0-2.14-.69,3,3,0,0,0-2,.69,3.06,3.06,0,0,0-1,2.41c0,1.7.46,2.28,1.56,2.74l1.38.57c.78.32.95.5.95,1.54a1.42,1.42,0,0,1-.21.92.79.79,0,0,1-.69.28.87.87,0,0,1-.67-.26,1.46,1.46,0,0,1-.23-1h-2.17a3.21,3.21,0,0,0,.72,2.41,3.25,3.25,0,0,0,2.35.79,3.39,3.39,0,0,0,2.37-.81,3.13,3.13,0,0,0,.7-2.41m-8.93.18v-8h-2.17v8.07a.91.91,0,1,1-1.81,0v-8.07h-2.17v8a3,3,0,0,0,.81,2.14,3.29,3.29,0,0,0,4.52,0,3,3,0,0,0,.81-2.14m-11.56-.73h-1.68l.84-4Zm3,3.65-2.8-10.88h-2.14l-2.8,10.88h2.26l.35-1.7h2.51l.35,1.7Z" transform="translate(-9.49 -27.67)"/><line class="cls-3" x1="83.72" y1="92.55" x2="226.45" y2="92.55"/><line class="cls-3" x1="83.72" y1="123.01" x2="226.45" y2="123.01"/></svg>